<svg width="92" height="89" viewBox="0 0 92 89" fill="none" xmlns="http://www.w3.org/2000/svg">
<path d="M78.6086 30.7633L77.6695 30.1554C77.6695 30.0794 77.6695 30.0035 77.6503 29.9085C76.7686 13.5146 63.122 0.388063 46.562 0.00813507C29.7529 -0.371793 15.3396 12.6027 14.0171 29.1106L13.9021 30.2694C13.8446 30.3074 13.8063 30.3264 13.7488 30.3644C0.312995 39.5207 -3.96116 57.7382 3.99299 71.8525C12.0046 86.0429 29.5996 91.8557 44.5304 85.435C44.6837 85.378 44.8179 85.302 44.9521 85.245C44.9904 85.226 45.0479 85.207 45.0862 85.169L45.8146 84.7891C45.8912 84.8271 45.987 84.8651 46.0637 84.9221C60.937 92.1217 78.6661 86.9927 87.2911 72.9733C96.0694 58.726 92.2361 40.3755 78.6086 30.7633ZM74.1811 46.0744L74.7753 46.9293C78.4936 52.5522 78.6278 59.8468 75.1011 65.5837C71.747 71.0167 65.6712 74.2081 59.2312 73.9231C57.1612 73.8282 55.1104 73.3533 53.1362 72.5174C52.2545 72.1375 51.5454 71.7955 50.8937 71.3966C50.472 71.1307 50.0695 70.8457 49.667 70.5608C48.057 69.383 46.677 67.9773 45.5654 66.3436C44.3004 64.5199 43.4187 62.5063 42.9204 60.3597L42.9012 60.2457L42.9396 60.1318C43.7254 57.7382 43.7254 55.1927 42.9587 52.7801C42.2496 50.5956 40.9462 48.6579 39.1637 47.1762C38.6462 46.7583 38.1862 46.4163 37.7454 46.1504C37.2279 45.8275 36.6337 45.5425 35.9629 45.2766C34.5254 44.7067 32.9729 44.4027 31.4204 44.4027C31.0563 44.4027 30.6921 44.4217 30.3279 44.4597C26.4563 44.8207 23.0638 46.8913 21.0513 50.1586C17.563 55.8196 19.3838 63.2472 25.0954 66.7045C26.6671 67.6543 28.4304 68.2242 30.2896 68.3952L30.5579 68.4142L30.6538 68.6611C31.2863 70.1619 32.0529 71.6626 32.9537 73.1063L32.9729 73.1443C33.0879 73.3533 33.2604 73.5812 33.3946 73.7902L32.3404 73.8472C25.7471 74.0181 19.7096 70.6178 16.5088 64.9378C13.308 59.2769 13.5571 52.3622 17.1413 46.8913C18.2721 45.1626 19.7096 43.6619 21.3963 42.4081C22.0863 41.8952 22.6804 41.5153 23.2746 41.1923C23.7538 40.9264 24.2713 40.6794 24.8271 40.4325C26.6288 39.6536 28.5838 39.1787 30.5963 39.0457C31.2096 39.0077 31.8804 39.0078 32.6663 39.0267C34.1421 39.0837 35.5604 39.3117 36.8637 39.7106L36.9787 39.7486L37.0554 39.8436C37.4771 40.2995 37.9371 40.7174 38.4354 41.0974C39.4129 41.8762 40.5054 42.4841 41.6746 42.921C42.2687 43.149 42.9012 43.3199 43.5146 43.4529C45.1629 43.7948 46.8304 43.7758 48.4979 43.4339C49.1495 43.3009 49.7437 43.13 50.3187 42.921C50.9512 42.6741 51.4687 42.4461 51.9287 42.1991C52.4654 41.9142 53.002 41.5343 53.5579 41.0974C53.9604 40.7744 54.3629 40.4135 54.7845 39.9576C55.7429 38.9698 56.4904 37.849 57.0462 36.6142C57.4295 35.7594 57.717 34.8475 57.9087 33.8787C58.1387 32.663 58.177 31.4282 58.0237 30.1744C57.832 28.6167 57.3529 27.154 56.5862 25.8053C56.4137 25.5013 56.222 25.1974 56.0112 24.9124C52.5037 19.8024 45.4887 18.1687 40.0454 21.1891C38.4354 22.082 37.0746 23.3167 36.0012 24.8554L35.8479 25.0834L35.5796 25.0454C34.3721 24.9124 33.1263 24.8364 31.8804 24.8364C31.3629 24.8364 30.8454 24.8554 30.3279 24.8744C30.0979 24.8934 29.8104 24.9124 29.5613 24.9314L30.0021 24.0006C32.9729 18.0167 39.1062 14.2174 45.7954 14.2174C45.9296 14.2174 46.0637 14.2174 46.2171 14.2174C52.9254 14.3694 58.867 18.2257 61.742 24.2855C62.6428 26.1852 63.1795 28.1798 63.352 30.2124C63.4095 30.8583 63.4287 31.4662 63.4095 32.0741C63.3903 32.7199 63.3328 33.4038 63.2178 34.1447C62.9303 36.1013 62.2978 38.0009 61.3587 39.7676C61.1095 40.2425 60.8412 40.6984 60.5345 41.1543C59.7104 42.3891 58.7903 43.4909 57.7745 44.4407L57.6787 44.5167L57.5637 44.5357C57.0079 44.6497 56.4329 44.8207 55.8579 45.0296C54.6887 45.4665 53.5962 46.0744 52.6187 46.8533C52.082 47.2712 51.5837 47.7271 51.1429 48.202C50.1462 49.3038 49.3412 50.5956 48.7854 52.0583C48.4787 52.8751 48.2679 53.578 48.1529 54.2619C48.0379 54.9267 47.9804 55.4776 47.9612 56.0095C47.942 56.6174 47.9804 57.2633 48.0954 57.9662C48.2295 58.878 48.4595 59.7898 48.8237 60.6637C49.1879 61.5755 49.6479 62.4303 50.2037 63.2092C50.8745 64.159 51.7179 65.0138 52.7145 65.7737C53.7112 66.5335 54.8037 67.1414 55.9729 67.5593C57.2379 68.0153 58.5412 68.2622 59.8253 68.3002C60.4003 68.3002 60.9945 68.2812 61.6845 68.1862C67.5687 67.4264 72.1111 62.4113 72.2453 56.5414C72.2836 54.7178 71.9195 52.9321 71.1145 51.2414L70.9995 50.9945L71.172 50.7855C72.1495 49.5128 73.0503 48.145 73.817 46.7393C73.9511 46.5113 74.0661 46.3024 74.1811 46.0744ZM46.447 4.73824C59.1545 5.04219 70.0986 14.2364 72.4561 26.6031C72.8203 28.4837 72.9736 30.3834 72.9353 32.264C72.9353 32.435 72.9161 32.625 72.897 32.7959L72.8778 33.1189C72.8011 34.5056 72.6095 35.9113 72.322 37.2411C71.9003 39.1787 71.2678 41.0784 70.4245 42.864C69.7728 44.2508 69.0445 45.5425 68.2395 46.7013C67.2237 48.183 66.0928 49.5318 64.9045 50.7095C66.4187 52.0013 67.3387 53.8249 67.4728 55.8006C67.492 56.0095 67.492 56.2185 67.492 56.4275C67.4345 58.935 66.0928 61.1956 63.927 62.5063C62.7195 63.2282 61.3395 63.6081 59.9403 63.5701C59.1545 63.5511 58.3687 63.3991 57.5829 63.1142C57.0079 62.9052 56.4904 62.6583 56.0495 62.3543C55.2254 61.8224 54.5354 61.1196 53.9795 60.3027C53.3279 59.3339 52.9254 58.2321 52.7912 57.0923C52.7529 56.7694 52.7337 56.4465 52.7337 56.1045C52.7529 55.2307 52.9445 54.3568 53.2704 53.54L53.5579 52.9131C53.6537 52.7422 53.7495 52.5712 53.8454 52.4002L53.922 52.2862C53.9795 52.1913 54.0562 52.0963 54.1137 52.0013L54.5354 51.4694C55.3404 50.5576 56.337 49.8547 57.487 49.4368C58.2154 49.1708 58.9628 48.9999 59.6912 48.9619C60.6112 48.24 61.4928 47.4042 62.3553 46.4543C63.0262 45.7135 63.6012 45.0106 64.0995 44.2888C64.8853 43.168 65.5945 41.9332 66.1887 40.6034C66.9553 38.8938 67.5112 37.1081 67.8178 35.3035C68.0095 34.2397 68.1053 33.1759 68.1245 32.1121C68.1245 31.9791 68.1245 31.8651 68.1245 31.7321C68.1245 31.6182 68.1053 31.5232 68.1053 31.4092C68.0862 29.3196 67.7987 27.306 67.2428 25.4063C64.502 16.0601 56.0879 9.63931 46.2745 9.41136C36.4229 9.1834 27.5871 15.4142 24.5204 24.6655L24.2138 25.6723C24.1371 25.6913 24.0413 25.7103 23.9646 25.7293C22.5463 26.0902 21.1279 26.5461 19.7288 27.116C19.4413 27.23 19.1921 27.344 18.9238 27.4579L19.1538 26.3751C21.7796 13.5336 33.1838 4.39631 46.447 4.73824ZM39.8921 82.1106C27.7213 85.8529 14.4196 80.5909 8.17131 69.554C1.9805 58.593 4.20382 45.0296 13.5955 36.5572C15.1671 35.1325 16.8538 33.9167 18.6171 32.9479C18.6938 32.9099 18.7705 32.8719 18.8471 32.8339L19.0005 32.7579C20.2271 32.0931 21.5304 31.5232 22.8721 31.0673C24.7504 30.4214 26.7246 29.9655 28.7179 29.7375C30.3663 29.5475 31.9954 29.5096 33.5671 29.6045C35.3687 29.7185 37.1129 29.9845 38.7612 30.4214C39.1062 28.4837 40.2179 26.7551 41.8854 25.6533C42.0579 25.5393 42.2304 25.4253 42.4221 25.3303C44.8754 23.9626 47.8654 24.1146 50.2037 25.7103C51.162 26.3561 51.9287 27.173 52.4654 28.1228C52.9637 29.0156 53.2704 30.0035 53.3662 31.0483C53.4045 31.3902 53.4045 31.7321 53.3854 32.0741C53.3087 33.3658 52.887 34.6386 52.1587 35.7214C51.6987 36.4242 51.1237 37.0321 50.4529 37.526C50.1845 37.716 49.9162 37.906 49.6287 38.0769C48.632 38.6278 47.5012 38.9318 46.3129 38.9888H46.1787C46.0829 38.9888 45.9487 39.0078 45.8721 38.9888C44.3387 38.9508 42.8821 38.4569 41.6554 37.545C40.9654 37.0321 40.3712 36.4242 39.9112 35.7214C38.8762 35.3414 37.7837 35.0185 36.6529 34.7715C35.6179 34.5436 34.6021 34.4106 33.6246 34.3346C32.0913 34.2207 30.5388 34.2586 28.9863 34.4676C27.1463 34.7146 25.3254 35.1895 23.5621 35.8923C22.6229 36.2723 21.7796 36.6712 20.9938 37.0891C20.7829 37.2031 20.5913 37.3361 20.3996 37.45L20.0738 37.659C18.2913 38.7608 16.7005 40.0716 15.3396 41.5723C8.89964 48.6389 7.71131 58.973 12.388 67.2744C17.0646 75.5568 26.3988 79.926 35.7712 78.2923L36.8062 78.0644C36.8637 78.1403 36.9212 78.1973 36.9979 78.2733C38.0137 79.3371 39.1446 80.3629 40.3329 81.2937C40.5437 81.4647 40.7737 81.6357 40.9846 81.7877L39.8921 82.1106ZM83.2278 70.5038C76.6728 81.1608 63.697 85.9099 51.6987 82.0536C49.6095 81.3887 47.6737 80.5149 45.9296 79.4511L45.6421 79.2611C44.4537 78.5203 43.3037 77.6654 42.2112 76.7346C40.6971 75.4239 39.3362 73.9421 38.1671 72.3275C37.1896 70.9787 36.3462 69.592 35.6562 68.1862C34.8704 66.5715 34.2571 64.9378 33.8162 63.3042C31.9379 63.95 29.8679 63.8361 28.0854 62.9432C27.8938 62.8482 27.7213 62.7533 27.5296 62.6393C25.8429 61.6325 24.6738 60.0178 24.2138 58.1181C23.7538 56.2185 24.0604 54.2619 25.0763 52.5902C25.8046 51.4124 26.8396 50.4816 28.1046 49.8547C30.0596 48.8859 32.3404 48.8289 34.3337 49.7027C34.6404 49.8357 34.9279 49.9877 35.2154 50.1586C36.3271 50.8425 37.2471 51.8113 37.8796 52.9701C39.0104 55.0977 39.0296 57.6052 37.9371 59.7328C38.2629 61.8414 38.8762 63.893 39.7962 65.8497C40.4671 67.2744 41.2912 68.6421 42.2496 69.8959C43.3612 71.3586 44.6837 72.6884 46.1979 73.8662C46.9837 74.474 47.712 74.9869 48.402 75.4049C48.6512 75.5568 48.9004 75.6898 49.1495 75.8228L49.4945 76.0127C51.3345 76.9816 53.2895 77.7034 55.302 78.1403C64.617 80.135 74.2003 76.0887 79.1453 68.0533C84.2244 59.8088 83.2661 49.1898 76.9028 41.9522L76.2128 41.1163C76.232 41.0594 76.2511 41.0024 76.2703 40.9454C76.7111 39.5396 77.0561 38.0959 77.2861 36.6712C77.3436 36.3672 77.382 36.0823 77.4203 35.7974L78.2253 36.5572C87.9428 45.2006 90.0511 59.4479 83.2278 70.5038Z" fill="url(#paint0_linear)"/>
<defs>
<linearGradient id="paint0_linear" x1="36.8187" y1="90.4584" x2="60.1266" y2="2.69266" gradientUnits="userSpaceOnUse">
<stop stop-color="#4B2E83"/>
<stop offset="0.0133" stop-color="#4C2F85"/>
<stop offset="0.3064" stop-color="#5840AB"/>
<stop offset="0.5778" stop-color="#614CC6"/>
<stop offset="0.8175" stop-color="#6653D6"/>
<stop offset="1" stop-color="#6856DC"/>
</linearGradient>
</defs>
</svg>
