<svg width="18" height="20" viewBox="0 0 18 20" fill="none" xmlns="http://www.w3.org/2000/svg">
<path d="M9 0C10.1 0 11 0.9 11 2C11 3.1 10.1 4 9 4C7.9 4 7 3.1 7 2C7 0.9 7.9 0 9 0ZM18 6C18 6.55228 17.549 7 17.0092 7H12V19.0015C12 19.5136 11.6173 19.9356 11.1173 19.9933L11 20C10.4477 20 10 19.549 10 19.0092V14H8V19.0092C8 19.5173 7.61728 19.9361 7.11733 19.9933L7 20C6.44772 20 6 19.5525 6 19.0015V7H0.990778C0.482671 7 0.0638981 6.61728 0.00666571 6.11733L0 6C0 5.44772 0.444946 5 0.993398 5H17.0066C17.5161 5 17.9359 5.38272 17.9933 5.88267L18 6Z" fill="#6E6E6E"/>
</svg>
