<svg width="20" height="19" viewBox="0 0 20 19" fill="none" xmlns="http://www.w3.org/2000/svg">
<path d="M6.47096 5.23691L9.52652 18.2289C9.76007 19.222 11.1561 19.2689 11.4558 18.2938L14.4005 8.71355L14.7855 10.2411C14.8975 10.6853 15.2971 10.9966 15.7552 10.9966H19C19.5523 10.9966 20 10.5489 20 9.99665C20 9.44436 19.5523 8.99665 19 8.99665H16.5344L15.4655 4.75559C15.2182 3.77452 13.8372 3.7391 13.5399 4.7062L10.6284 14.1784L7.47522 0.771061C7.23523 -0.249359 5.78658 -0.259896 5.53177 0.756925L3.46696 8.99665H1C0.447715 8.99665 0 9.44436 0 9.99665C0 10.5489 0.447715 10.9966 1 10.9966H4.24729C4.70595 10.9966 5.10581 10.6846 5.2173 10.2397L6.47096 5.23691Z" fill="#6E6E6E"/>
</svg>
