<svg width="24" height="24" viewBox="0 0 24 24" fill="none" xmlns="http://www.w3.org/2000/svg">
<path d="M10.6978 12.9737L13.3802 15.2109L10.5044 18.3278V13.1348L10.6978 12.9737ZM11.8693 11.9976L14.9462 9.43399C15.2759 9.15927 15.3083 8.66442 15.0172 8.34907L10.3055 3.24475C9.84246 2.74308 9.00444 3.07073 9.00444 3.75346V9.60811L7.88421 8.67379C7.56611 8.40848 7.09317 8.45127 6.82786 8.76937C6.56256 9.08747 6.60535 9.56041 6.92345 9.82571L9.00444 11.5614V12.4321L6.92374 14.1657C6.60551 14.4309 6.56247 14.9038 6.82762 15.222C7.09276 15.5402 7.56568 15.5833 7.88391 15.3181L9.00444 14.3845V20.2466C9.00444 20.9295 9.84263 21.2571 10.3057 20.7552L15.0173 15.6486C15.3082 15.3333 15.2759 14.8388 14.9465 14.564L11.8693 11.9976ZM10.6983 11.0208L10.5044 10.8592V5.6717L13.3798 8.78667L10.6983 11.0208Z" fill="#6E6E6E"/>
</svg>
