<svg width="41" height="46" viewBox="0 0 41 46" fill="none" xmlns="http://www.w3.org/2000/svg">
<path fill-rule="evenodd" clip-rule="evenodd" d="M36.3636 4.54545H34.0909V0H29.5455V4.54545H11.3636V0H6.81818V4.54545H4.54545C2.03409 4.54545 0.0227273 6.58182 0.0227273 9.09091L0 40.9091C0 43.4205 2.03409 45.4545 4.54545 45.4545H36.3636C38.8727 45.4545 40.9091 43.4205 40.9091 40.9091V9.09091C40.9091 6.58182 38.8727 4.54545 36.3636 4.54545ZM4.5455 15.9091H36.3637V40.9091H4.5455V15.9091Z" fill="#6E6E6E"/>
<path d="M20.4419 33.4546H13.9204V32.5454L17.3657 28.7173C17.8761 28.1385 18.2271 27.6691 18.4185 27.3091C18.6144 26.9445 18.7124 26.5685 18.7124 26.1812C18.7124 25.6616 18.5552 25.2355 18.2407 24.9028C17.9263 24.5701 17.507 24.4038 16.9829 24.4038C16.354 24.4038 15.8641 24.5838 15.5132 24.9438C15.1668 25.2993 14.9937 25.7961 14.9937 26.4341H13.729C13.729 25.5181 14.0229 24.7775 14.6108 24.2124C15.2033 23.6473 15.994 23.3647 16.9829 23.3647C17.908 23.3647 18.6395 23.6086 19.1772 24.0962C19.715 24.5793 19.9839 25.2241 19.9839 26.0308C19.9839 27.0106 19.3595 28.1772 18.1108 29.5308L15.4448 32.4224H20.4419V33.4546ZM23.6206 27.8628H24.5708C25.1678 27.8537 25.6372 27.6965 25.979 27.3911C26.3208 27.0858 26.4917 26.6733 26.4917 26.1538C26.4917 24.9871 25.9106 24.4038 24.7485 24.4038C24.2017 24.4038 23.7642 24.561 23.436 24.8755C23.1125 25.1854 22.9507 25.5978 22.9507 26.1128H21.686C21.686 25.3244 21.9731 24.6704 22.5474 24.1509C23.1261 23.6268 23.8599 23.3647 24.7485 23.3647C25.6873 23.3647 26.4233 23.6131 26.9565 24.1099C27.4897 24.6066 27.7563 25.297 27.7563 26.1812C27.7563 26.6141 27.6151 27.0334 27.3325 27.439C27.0545 27.8446 26.674 28.1476 26.1909 28.3481C26.7378 28.5213 27.1593 28.8084 27.4556 29.2095C27.7563 29.6105 27.9067 30.1004 27.9067 30.6792C27.9067 31.5724 27.6151 32.2811 27.0317 32.8052C26.4484 33.3293 25.6896 33.5913 24.7554 33.5913C23.8211 33.5913 23.0601 33.3384 22.4722 32.8325C21.8888 32.3267 21.5972 31.659 21.5972 30.8296H22.8687C22.8687 31.3537 23.0396 31.7729 23.3813 32.0874C23.7231 32.4019 24.1812 32.5591 24.7554 32.5591C25.366 32.5591 25.8332 32.3996 26.1567 32.0806C26.4803 31.7616 26.6421 31.3035 26.6421 30.7065C26.6421 30.1278 26.4644 29.6834 26.1089 29.3735C25.7534 29.0636 25.2407 28.9041 24.5708 28.895H23.6206V27.8628Z" fill="#6E6E6E"/>
</svg>
