<svg width="22" height="19" viewBox="0 0 22 19" fill="none" xmlns="http://www.w3.org/2000/svg">
<path d="M16.5002 8.75C19.1236 8.75 21.2502 10.8766 21.2502 13.5C21.2502 16.1234 19.1236 18.25 16.5002 18.25C14.4022 18.25 12.6219 16.8898 11.993 15.0032H10.0075C9.37856 16.8898 7.59824 18.25 5.50023 18.25C2.87687 18.25 0.750225 16.1234 0.750225 13.5C0.750225 10.8766 2.87687 8.75 5.50023 8.75C7.95481 8.75 9.97454 10.6118 10.2243 13.0003H11.7762C12.0259 10.6118 14.0456 8.75 16.5002 8.75ZM5.50023 10.75C3.98144 10.75 2.75023 11.9812 2.75023 13.5C2.75023 15.0188 3.98144 16.25 5.50023 16.25C7.01901 16.25 8.25023 15.0188 8.25023 13.5C8.25023 11.9812 7.01901 10.75 5.50023 10.75ZM16.5002 10.75C14.9814 10.75 13.7502 11.9812 13.7502 13.5C13.7502 15.0188 14.9814 16.25 16.5002 16.25C18.019 16.25 19.2502 15.0188 19.2502 13.5C19.2502 11.9812 18.019 10.75 16.5002 10.75ZM14.5122 0C15.7266 0 16.7972 0.796587 17.1462 1.95979L18.1523 5.31093C18.9448 5.44285 19.7205 5.59805 20.4793 5.77658C21.0169 5.90308 21.3501 6.44144 21.2236 6.97904C21.0971 7.51664 20.5588 7.84991 20.0212 7.72342C17.2656 7.07506 14.2589 6.75 11.0002 6.75C7.74156 6.75 4.7348 7.07506 1.97926 7.72342C1.44166 7.84991 0.903303 7.51664 0.776808 6.97904C0.650313 6.44144 0.983582 5.90308 1.52119 5.77658C2.27963 5.59813 3.05496 5.44298 3.84716 5.3111L4.85426 1.95979C5.20323 0.796587 6.27386 0 7.48829 0H14.5122Z" fill="#6E6E6E"/>
</svg>
