<svg width="24" height="24" viewBox="0 0 24 24" fill="none" xmlns="http://www.w3.org/2000/svg">
<path d="M5.84279 4.56837C9.2432 1.16796 14.7564 1.16796 18.1568 4.56837C21.5572 7.96878 21.5572 13.4819 18.1568 16.8823L16.9698 18.0562C16.0949 18.9149 14.9598 20.0188 13.5639 21.3684C12.6917 22.2118 11.3079 22.2117 10.4358 21.3682L6.94466 17.9723C6.5059 17.5415 6.13863 17.1782 5.84279 16.8823C2.44238 13.4819 2.44238 7.96878 5.84279 4.56837ZM17.0961 5.62903C14.2815 2.81441 9.71807 2.81441 6.90345 5.62903C4.08882 8.44366 4.08882 13.0071 6.90345 15.8217L8.39052 17.2891C9.20943 18.0906 10.2389 19.091 11.4786 20.29C11.7693 20.5711 12.2305 20.5712 12.5213 20.2901L15.9162 16.9886C16.3851 16.5283 16.7785 16.1393 17.0961 15.8217C19.9107 13.0071 19.9107 8.44366 17.0961 5.62903ZM11.9998 7.99903C13.6575 7.99903 15.0013 9.34287 15.0013 11.0006C15.0013 12.6583 13.6575 14.0021 11.9998 14.0021C10.3421 14.0021 8.99823 12.6583 8.99823 11.0006C8.99823 9.34287 10.3421 7.99903 11.9998 7.99903ZM11.9998 9.49903C11.1705 9.49903 10.4982 10.1713 10.4982 11.0006C10.4982 11.8299 11.1705 12.5021 11.9998 12.5021C12.8291 12.5021 13.5013 11.8299 13.5013 11.0006C13.5013 10.1713 12.8291 9.49903 11.9998 9.49903Z" fill="#6E6E6E"/>
</svg>
