<svg width="24" height="24" viewBox="0 0 24 24" fill="none" xmlns="http://www.w3.org/2000/svg">
<path d="M20.3805 12.0001C20.3805 16.6285 16.6285 20.3805 12.0001 20.3805C7.37168 20.3805 3.61963 16.6285 3.61963 12.0001C3.61963 7.37168 7.37168 3.61963 12.0001 3.61963C16.6285 3.61963 20.3805 7.37168 20.3805 12.0001Z" stroke="#6E6E6E" stroke-width="1.5"/>
<path d="M11.8973 5.29468V1.04346M18.5094 11.7921H22.9565M1.04346 11.7921H5.49054M11.8973 22.9565V18.7053" stroke="#6E6E6E" stroke-width="1.5" stroke-linecap="round"/>
<path fill-rule="evenodd" clip-rule="evenodd" d="M13.7464 9.1763C12.9354 9.1763 12.2056 9.69024 11.9217 10.3623C11.6379 9.69024 10.9081 9.1763 10.0971 9.1763C9.08341 9.1763 8.27246 9.92744 8.27246 10.9553C8.27246 12.339 9.69162 13.525 11.9217 15.5017C14.1519 13.525 15.571 12.339 15.571 10.9553C15.571 9.92744 14.7601 9.1763 13.7464 9.1763Z" fill="#6E6E6E"/>
</svg>
