<svg width="30" height="30" viewBox="0 0 30 30" fill="none" xmlns="http://www.w3.org/2000/svg">
<path fill-rule="evenodd" clip-rule="evenodd" d="M15 30C23.2843 30 30 23.2843 30 15C30 6.71573 23.2843 0 15 0C6.71573 0 0 6.71573 0 15C0 23.2843 6.71573 30 15 30Z" fill="#8D55E9"/>
<path d="M21.8589 15C21.8589 18.7879 18.7882 21.8587 15.0002 21.8587C11.2123 21.8587 8.14154 18.7879 8.14154 15C8.14154 11.212 11.2123 8.14127 15.0002 8.14127C18.7882 8.14127 21.8589 11.212 21.8589 15Z" stroke="white" stroke-width="1.5"/>
<path d="M14.9144 9.41226V5.86957M20.4245 14.8268H24.1304M5.86957 14.8268H9.57547M14.9144 24.1304V20.5877" stroke="white" stroke-width="1.5" stroke-linecap="round"/>
<path fill-rule="evenodd" clip-rule="evenodd" d="M16.4555 12.6468C15.7797 12.6468 15.1715 13.0751 14.9349 13.6352C14.6984 13.0751 14.0902 12.6468 13.4144 12.6468C12.5697 12.6468 11.8939 13.2728 11.8939 14.1293C11.8939 15.2824 13.0765 16.2708 14.9349 17.918C16.7934 16.2708 17.976 15.2824 17.976 14.1293C17.976 13.2728 17.3002 12.6468 16.4555 12.6468Z" fill="white"/>
</svg>
