<svg width="15" height="20" viewBox="0 0 15 20" fill="none" xmlns="http://www.w3.org/2000/svg">
<path d="M2.7716 0.438987L3.84819 0.09498C4.85701 -0.227371 5.93486 0.293579 6.36688 1.31232L7.22662 3.33967C7.60127 4.22312 7.39337 5.26203 6.71264 5.90815L4.81832 7.70616C4.9352 8.78164 5.29671 9.84064 5.90285 10.8832C6.50899 11.9257 7.26601 12.7905 8.17392 13.4776L10.4491 12.7189C11.3115 12.4313 12.2507 12.7618 12.7797 13.539L14.0121 15.3495C14.627 16.2529 14.5164 17.4993 13.7534 18.2653L12.9356 19.0862C12.1217 19.9033 10.9592 20.1997 9.88377 19.8643C7.34492 19.0723 5.0106 16.7211 2.88083 12.8107C0.74796 8.89448 -0.00478882 5.57189 0.622583 2.84289C0.886579 1.69457 1.70409 0.780091 2.7716 0.438987Z" fill="#6E6E6E"/>
</svg>
