<svg width="24" height="24" viewBox="0 0 24 24" fill="none" xmlns="http://www.w3.org/2000/svg">
<path d="M8.98932 2.5C10.1387 2.5 11.2212 2.96705 12.0052 3.76669C12.7886 2.96705 13.8711 2.5 15.0204 2.5H18.7551C19.1693 2.5 19.5051 2.83579 19.5051 3.25L19.5049 4.004L21.2549 4.00457C21.6346 4.00457 21.9484 4.28673 21.998 4.6528L22.0049 4.75457V20.25C22.0049 20.6297 21.7227 20.9435 21.3567 20.9932L21.2549 21H2.75488C2.37519 21 2.06139 20.7178 2.01173 20.3518L2.00488 20.25V4.75457C2.00488 4.37488 2.28704 4.06108 2.65311 4.01142L2.75488 4.00457L4.50388 4.004L4.50464 3.25C4.50464 2.8703 4.78679 2.55651 5.15287 2.50685L5.25464 2.5H8.98932ZM4.50388 5.504H3.50488V19.5L10.9481 19.4998C10.4515 18.9207 9.73884 18.5588 8.96729 18.5066L8.77326 18.5H5.25464C4.87494 18.5 4.56115 18.2178 4.51148 17.8518L4.50464 17.75L4.50388 5.504ZM19.5051 17.75C19.5051 18.1642 19.1693 18.5 18.7551 18.5H15.2365C14.3912 18.5 13.5996 18.8725 13.0617 19.4998L20.5049 19.5V5.504H19.5049L19.5051 17.75ZM18.0061 3.999L15.0204 4L14.8261 4.00692C13.9891 4.06667 13.2256 4.50976 12.7551 5.212V17.777L12.7785 17.7601C13.4926 17.2719 14.3449 17 15.2365 17L18.0061 16.999L18.0059 4.798L18.0036 4.75457L18.0059 4.71L18.0061 3.999ZM8.98932 4L6.00388 3.999L6.00619 4.75457L6.00388 4.783V16.999L8.77326 17C9.57571 17 10.3463 17.2203 11.013 17.6202L11.2539 17.776V5.211C10.8203 4.5637 10.1363 4.13636 9.3754 4.02746L9.18366 4.00692L8.98932 4Z" fill="#6E6E6E"/>
</svg>
