<svg width="24" height="24" viewBox="0 0 24 24" fill="none" xmlns="http://www.w3.org/2000/svg">
<path d="M9.71605 3.72301C10.1642 1.42566 13.4511 1.42566 13.8993 3.72301C14.172 5.12098 15.713 5.86307 16.976 5.20467C19.0516 4.12271 21.1009 6.6925 19.5842 8.47528C18.6613 9.56012 19.0419 11.2276 20.3441 11.8046C22.4841 12.7527 21.7527 15.9572 19.4133 15.8829C17.9897 15.8377 16.9233 17.1749 17.2841 18.5528C17.8771 20.8171 14.9157 22.2432 13.5151 20.3678C12.6629 19.2267 10.9525 19.2267 10.1002 20.3678C8.69965 22.2432 5.73827 20.8171 6.33125 18.5528C6.69208 17.1749 5.6257 15.8377 4.2021 15.8829C1.86262 15.9572 1.13122 12.7527 3.27124 11.8046C4.57346 11.2276 4.95405 9.56012 4.03112 8.47528C2.51442 6.6925 4.56376 4.12271 6.63934 5.20467C7.90236 5.86307 9.44332 5.12098 9.71605 3.72301Z" stroke="#6E6E6E" stroke-width="1.5"/>
<path d="M14.8077 12.0016C14.8077 13.6584 13.4645 15.0016 11.8077 15.0016C10.1508 15.0016 8.80768 13.6584 8.80768 12.0016C8.80768 10.3447 10.1508 9.00159 11.8077 9.00159C13.4645 9.00159 14.8077 10.3447 14.8077 12.0016Z" stroke="#6E6E6E" stroke-width="1.5"/>
</svg>
