<svg width="18" height="20" viewBox="0 0 18 20" fill="none" xmlns="http://www.w3.org/2000/svg">
<path d="M9.45 0.15C11.992 2.05652 14.5866 3 17.25 3C17.6642 3 18 3.33579 18 3.75V9C18 14.0012 15.0424 17.6757 9.27489 19.9478C9.09824 20.0174 8.90176 20.0174 8.72511 19.9478C2.95756 17.6757 0 14.0012 0 9V3.75C0 3.33579 0.335786 3 0.75 3C3.41341 3 6.00797 2.05652 8.55 0.15C8.81667 -0.05 9.18333 -0.05 9.45 0.15ZM9 14C8.58579 14 8.25 14.3358 8.25 14.75C8.25 15.1642 8.58579 15.5 9 15.5C9.41421 15.5 9.75 15.1642 9.75 14.75C9.75 14.3358 9.41421 14 9 14ZM9 4.98211C8.6203 4.98211 8.30651 5.26427 8.25685 5.63034L8.25 5.73211V12.2321L8.25685 12.3339C8.30651 12.7 8.6203 12.9821 9 12.9821C9.3797 12.9821 9.69349 12.7 9.74315 12.3339L9.75 12.2321V5.73211L9.74315 5.63034C9.69349 5.26427 9.3797 4.98211 9 4.98211Z" fill="#6E6E6E"/>
</svg>
