<svg width="10" height="20" viewBox="0 0 10 20" fill="none" xmlns="http://www.w3.org/2000/svg">
<path d="M5 0C6.73303 0 8.14925 1.35645 8.24485 3.06546L8.25 3.24987L8.251 11.202L8.33103 11.2709C9.25655 12.0975 9.84817 13.2418 9.97457 14.4939L9.9936 14.7457L10 15C10 17.7614 7.76142 20 5 20C2.23858 20 0 17.7614 0 15C0 13.6373 0.549599 12.3655 1.48922 11.4396L1.66993 11.2701L1.749 11.202L1.75 3.25C1.75 1.57886 3.0113 0.202316 4.63385 0.0203962L4.81558 0.00514483L5 0ZM5 1.5C4.08183 1.5 3.32881 2.20711 3.2558 3.10651L3.25 3.25004L3.24954 11.9445L2.94128 12.1691C2.04185 12.8246 1.5 13.8664 1.5 15C1.5 16.933 3.067 18.5 5 18.5C6.933 18.5 8.5 16.933 8.5 15C8.5 13.9376 8.02407 12.9558 7.22386 12.2971L7.05954 12.1697L6.7515 11.9451L6.75 3.25C6.75 2.2835 5.9665 1.5 5 1.5ZM5 6C5.41421 6 5.75 6.33579 5.75 6.75L5.75057 12.6146C6.76455 12.9334 7.5 13.8808 7.5 15C7.5 16.3807 6.38071 17.5 5 17.5C3.61929 17.5 2.5 16.3807 2.5 15C2.5 13.8804 3.23593 12.9328 4.25042 12.6143L4.25 6.75C4.25 6.33579 4.58579 6 5 6Z" fill="#6E6E6E"/>
</svg>
