<svg width="24" height="24" viewBox="0 0 24 24" fill="none" xmlns="http://www.w3.org/2000/svg">
<path d="M10.9098 3.27441C11.9488 2.71432 13.2457 3.03977 13.8831 3.9943L13.9658 4.12834L21.7185 17.7516C21.9031 18.0761 22 18.4409 22 18.8118C22 19.97 21.0756 20.918 19.9057 20.995L19.7518 21H4.2486C3.86759 21 3.49284 20.9058 3.15953 20.7261C2.12053 20.1662 1.71581 18.9235 2.20897 17.8912L2.28181 17.7518L10.0323 4.12857C10.2367 3.76936 10.5408 3.47336 10.9098 3.27441ZM12.0009 16.1307C11.4498 16.1307 11.003 16.5655 11.003 17.1019C11.003 17.6383 11.4498 18.0731 12.0009 18.0731C12.552 18.0731 12.9988 17.6383 12.9988 17.1019C12.9988 16.5655 12.552 16.1307 12.0009 16.1307ZM11.9987 8.34696C11.4863 8.34714 11.0641 8.72272 11.0066 9.20641L10.9999 9.31982L11.0017 14.1833L11.0085 14.2967C11.0664 14.7803 11.4888 15.1556 12.0013 15.1554C12.5137 15.1553 12.9359 14.7797 12.9934 14.296L13.0001 14.1826L12.9983 9.31912L12.9915 9.20571C12.9336 8.72206 12.5112 8.34678 11.9987 8.34696Z" fill="#6E6E6E"/>
</svg>
